<?xml version="1.0" encoding="UTF-8" standalone="no"?> <svg xmlns:inkscape="http://www.inkscape.org/namespaces/inkscape" xmlns:sodipodi="http://sodipodi.sourceforge.net/DTD/sodipodi-0.dtd" xmlns="http://www.w3.org/2000/svg" xmlns:svg="http://www.w3.org/2000/svg" xmlns:rdf="http://www.w3.org/1999/02/22-rdf-syntax-ns#" xmlns:cc="http://creativecommons.org/ns#" xmlns:dc="http://purl.org/dc/elements/1.1/" id="svg8641" version="1.1" inkscape:version="1.3.2 (091e20e, 2023-11-25, custom)" width="1642.5" height="450" viewBox="0 0 1642.5 450" sodipodi:docname="FundacionDialnetFondoBL.svg"><metadata id="metadata8647"></metadata><defs id="defs8645"></defs><g id="g8681" transform="translate(-324.49556,-523.28613)"><rect style="fill:#ffffff" id="rect2" width="1640" height="440" x="325.74557" y="528.28613"></rect><path inkscape:connector-curvature="0" id="path8764" style="fill:#c6c5c5;fill-opacity:1;fill-rule:nonzero;stroke:none" d="m 783.78146,723.08647 c -16.49602,0 -29.86077,13.38163 -29.86077,29.87195 0,16.49603 13.36475,29.87195 29.86077,29.87195 16.49603,0 29.86625,-13.37592 29.86625,-29.87195 0,-16.49032 -13.37022,-29.87195 -29.86625,-29.87195"></path><path inkscape:connector-curvature="0" id="path8766" style="fill:#c6c5c5;fill-opacity:1;fill-rule:nonzero;stroke:none" d="m 784.8707,652.21973 -102.91192,0 0,201.47738 102.91192,0 c 55.63701,0 100.73892,-45.10168 100.73892,-100.73869 0,-55.63701 -45.10191,-100.73869 -100.73892,-100.73869 m -1.08376,164.7435 c -35.35352,0 -64.00458,-28.657 -64.00458,-64.00481 0,-35.34781 28.65106,-64.00481 64.00458,-64.00481 35.34803,0 63.9991,28.657 63.9991,64.00481 0,35.34781 -28.65107,64.00481 -63.9991,64.00481"></path><path inkscape:connector-curvature="0" id="path8772" style="fill:none;stroke:#231f20;stroke-width:5.70401955;stroke-linecap:butt;stroke-linejoin:miter;stroke-miterlimit:4;stroke-dasharray:none;stroke-opacity:1" d="m 627.97046,588.22633 0,319.99551"></path><path inkscape:connector-curvature="0" id="path8774" style="fill:#231f20;fill-opacity:1;fill-rule:nonzero;stroke:none" d="m 963.04146,666.62256 52.16344,0 0,-7.35819 -59.61289,0 0,109.15783 7.44945,0 0,-49.5166 44.43434,0 0,-7.35818 -44.43434,0 0,-44.92486 z m 102.52404,101.79964 7.0333,0 0,-73.90128 -7.0333,0 0,45.84891 c 0,14.10034 -6.765,22.08026 -18.7717,22.08026 -12.0012,0 -18.3555,-7.82021 -18.3555,-22.08026 l 0,-45.84891 -7.0333,0 0,47.22928 c 0,8.73856 2.3446,15.64042 6.9019,20.53447 4.4094,4.75715 10.347,7.06158 17.6596,7.06158 8.1399,0 14.631,-3.22277 19.599,-9.66261 l 0,8.73856 z m 71.0607,0 7.0388,0 0,-47.22358 c 0,-8.73286 -2.3442,-15.63472 -6.9019,-20.54018 -4.4149,-4.75145 -10.3471,-7.05587 -17.6597,-7.05587 -8.1453,0 -14.6305,3.22277 -19.599,9.66261 l 0,-8.74426 -7.0328,0 0,73.90128 7.0328,0 0,-45.84321 c 0,-14.10034 6.765,-22.08026 18.7722,-22.08026 12.0012,0 18.3496,7.82021 18.3496,22.08026 l 0,45.84321 z m 66.7886,0 7.0387,0 0,-109.15783 -7.0387,0 0,44.76515 c -5.9381,-8.58455 -12.1441,-10.42695 -19.7359,-10.42695 -7.0388,0 -12.8341,2.60674 -16.2852,6.43984 -6.7591,7.5179 -8.5561,19.78154 -8.5561,31.43485 0,11.65331 1.797,23.91125 8.5561,31.43485 3.4511,3.83311 9.2464,6.43414 16.2852,6.43414 7.5918,0 13.7978,-1.8424 19.7359,-10.42695 l 0,9.5029 z m 0,-36.94494 c 0,15.3267 -2.4929,30.97283 -18.7662,30.97283 -16.2907,0 -18.7663,-15.64613 -18.7663,-30.97283 0,-15.33811 2.4756,-30.97853 18.7663,-30.97853 16.2733,0 18.7662,15.64042 18.7662,30.97853 m 65.9499,36.94494 7.0442,0 0,-50.59466 c 0,-15.48071 -8.1394,-24.22497 -25.8105,-24.22497 -10.8946,0 -17.7965,2.60674 -23.4494,11.351 l 5.0994,4.90546 c 4.278,-6.75927 8.9726,-9.3603 18.35,-9.3603 13.6669,0 18.7663,6.29724 18.7663,18.09315 l 0,8.27653 -21.5215,0 c -14.4882,0 -23.1866,7.82592 -23.1866,21.32163 0,5.51579 1.6541,10.88897 4.837,14.41406 4.278,4.89975 9.6512,6.74215 19.593,6.74215 9.3834,0 14.6252,-1.9907 20.2781,-8.28224 l 0,7.35819 z m 0,-35.25655 0,9.5029 c 0,6.74215 -1.238,11.4936 -3.7191,14.10604 -4.837,5.05376 -10.4899,5.6755 -16.559,5.6755 -12.1436,0 -17.3858,-4.60315 -17.3858,-14.42547 0,-9.95922 5.6584,-14.85897 16.9637,-14.85897 l 20.7002,0 z m 73.6845,24.8296 -4.8201,-4.89975 c -5.6639,6.90186 -10.0733,9.35459 -17.1121,9.35459 -7.5918,0 -13.6609,-3.22848 -17.6651,-9.81092 -3.3083,-5.36748 -4.5518,-11.19699 -4.5518,-21.16191 0,-9.96492 1.2435,-15.79443 4.5518,-21.15621 4.0042,-6.59384 10.0733,-9.82232 17.6651,-9.82232 7.0388,0 11.4482,2.31013 17.1121,9.3603 l 4.8201,-4.90546 c -7.0274,-8.74426 -12.8286,-11.351 -21.9322,-11.351 -18.2127,0 -29.2557,14.41976 -29.2557,37.87469 0,23.45493 11.043,37.86899 29.2557,37.86899 9.1036,0 14.9048,-2.60103 21.9322,-11.351 m 13.7978,10.42695 7.0387,0 0,-73.90128 -7.0387,0 0,73.90128 z m -0.8214,-99.50663 8.6929,0 0,-9.6512 -8.6929,0 0,9.6512 z m 77.415,62.56169 c 0,-10.58666 -1.2435,-21.93195 -8.2823,-29.74646 -4.8256,-5.36178 -10.9006,-8.12823 -18.4869,-8.12823 -7.455,0 -13.6609,2.76645 -18.4979,8.12823 -7.0333,7.81451 -8.2823,19.1598 -8.2823,29.74646 0,10.57525 1.249,21.92625 8.2823,29.74646 4.837,5.36178 11.0429,8.12253 18.4979,8.12253 7.5863,0 13.6613,-2.76075 18.4869,-8.12253 7.0388,-7.82021 8.2823,-19.17121 8.2823,-29.74646 m -7.0388,0 c 0,8.58455 -0.4198,18.55518 -5.9322,24.687 -3.7304,4.14112 -8.4191,6.28583 -13.7982,6.28583 -5.3901,0 -10.0733,-2.14471 -13.8038,-6.28583 -5.5155,-6.13182 -5.9321,-16.10245 -5.9321,-24.687 0,-8.58455 0.4152,-18.54947 5.9321,-24.68129 3.7305,-4.14682 8.4137,-6.29724 13.8038,-6.29724 5.3791,0 10.0678,2.15042 13.7982,6.29724 5.5101,6.13182 5.9322,16.09674 5.9322,24.68129 m -18.2186,-53.50941 14.6305,-22.53658 -9.2459,0 -13.3817,22.53658 7.9971,0 z m 85.4174,90.45435 7.0447,0 0,-47.22358 c 0,-8.73286 -2.35,-15.63472 -6.9132,-20.54018 -4.4095,-4.75145 -10.3417,-7.05587 -17.6542,-7.05587 -8.1454,0 -14.6306,3.22277 -19.599,9.66261 l 0,-8.74426 -7.0329,0 0,73.90128 7.0329,0 0,-45.84321 c 0,-14.10034 6.7649,-22.08026 18.7721,-22.08026 12.0013,0 18.3496,7.82021 18.3496,22.08026 l 0,45.84321 z m 123.2183,-56.11044 c 0,-14.71638 0.4152,-32.05089 -9.5198,-43.08247 -5.9381,-6.59384 -14.2144,-9.96492 -24.556,-9.96492 l -32.9807,0 0,109.15783 32.9807,0 c 10.3416,0 18.6179,-3.36537 24.556,-9.96493 9.9364,-11.03157 9.5198,-31.42344 9.5198,-46.14551 m -7.4436,0 c 0,12.26934 0.4107,31.28084 -7.3239,40.32741 -5.6529,6.58244 -13.2447,8.42484 -21.1108,8.42484 l -23.7287,0 0,-94.44145 23.7287,0 c 7.8661,0 15.4579,1.8424 21.1108,8.42483 7.7346,9.04088 7.3239,24.99502 7.3239,37.26437 m 25.2401,56.11044 7.0388,0 0,-73.90128 -7.0388,0 0,73.90128 z m -0.8214,-99.50663 8.6815,0 0,-9.6512 -8.6815,0 0,9.6512 z m 66.7886,99.50663 7.0329,0 0,-50.59466 c 0,-15.48071 -8.134,-24.22497 -25.7991,-24.22497 -10.9006,0 -17.8025,2.60674 -23.4609,11.351 l 5.1054,4.90546 c 4.278,-6.75927 8.9667,-9.3603 18.3555,-9.3603 13.6554,0 18.7662,6.29724 18.7662,18.09315 l 0,8.27653 -21.5269,0 c -14.4942,0 -23.1812,7.82592 -23.1812,21.32163 0,5.51579 1.6542,10.88897 4.8311,14.41406 4.278,4.89975 9.6571,6.74215 19.5876,6.74215 9.3888,0 14.631,-1.9907 20.2894,-8.28224 l 0,7.35819 z m 0,-35.25655 0,9.5029 c 0,6.74215 -1.2435,11.4936 -3.7249,14.10604 -4.8311,5.05376 -10.4895,5.6755 -16.5645,5.6755 -12.1436,0 -17.3859,-4.60315 -17.3859,-14.42547 0,-9.95922 5.6644,-14.85897 16.9752,-14.85897 l 20.7001,0 z m 33.1176,35.66724 0,-109.56852 -7.0333,0 0,109.71682 m 77.1297,-0.55899 7.0388,0 0,-47.22358 c 0,-8.73286 -2.3501,-15.63472 -6.9019,-20.54018 -4.4149,-4.75145 -10.3471,-7.05587 -17.6651,-7.05587 -8.1399,0 -14.6251,3.22277 -19.5935,9.66261 l 0,-8.74426 -7.0388,0 0,73.90128 7.0388,0 0,-45.84321 c 0,-14.10034 6.7595,-22.08026 18.7662,-22.08026 12.0013,0 18.3555,7.82021 18.3555,22.08026 l 0,45.84321 z m 29.2502,-35.25655 46.2314,0 0,-3.52508 c 0,-22.702 -9.9364,-36.038 -26.6323,-36.038 -16.7069,0 -26.6319,13.95774 -26.6319,37.87469 0,24.687 9.925,37.86899 28.286,37.86899 11.0375,0 17.249,-3.8331 24.0085,-11.351 l -5.2477,-4.59174 c -5.6529,6.28013 -10.4899,8.88116 -18.3556,8.88116 -14.2089,0 -21.6584,-10.26153 -21.6584,-29.11902 m 39.1926,-6.29724 -39.1926,0 c 0.4153,-7.19847 0.8328,-9.18917 2.3501,-13.94062 2.8976,-7.82021 9.5202,-12.42906 17.249,-12.42906 7.7232,0 14.3513,4.60885 17.2489,12.42906 1.7911,4.43202 1.9225,6.89616 2.3446,13.94062 m 40.567,41.55379 6.0691,0 0,-6.89046 -4.8256,0 c -7.0447,0 -10.2102,-4.45484 -10.2102,-12.27505 l 0,-48.90056 15.0358,0 0,-5.83521 -15.0358,0 0,-23.60324 -7.0447,0 0,23.60324 -9.1036,0 0,5.83521 9.1036,0 0,48.75226 c 0,11.19699 5.5274,19.31381 16.0114,19.31381"></path><path d="m 494.64965,756.02035 c 0.50855,0 2.01324,-0.20075 2.90545,-0.47571 0.89031,-0.26914 4.68119,-2.88107 4.93451,-3.20075 1.15373,-1.4375 3.89708,-4.81367 4.95995,-6.87259 l 1.20726,-3.97081 c 0.2086,-1.13423 2.4861,-5.05296 3.17577,-6.71198 0.83906,-1.98173 2.67461,-4.79584 2.78236,-5.34446 0.30291,-1.48365 0.96393,-4.89537 1.40229,-6.2482 0.32528,-0.17542 0.78589,-0.38652 0.78589,-0.88162 l 0.32183,-3.3776 c 0.0857,-1.15064 0.11417,-1.97269 0.54636,-3.13226 0,-0.22155 3.00107,-4.83448 3.00107,-5.94944 0,-0.49807 -0.27544,-2.77855 -0.27544,-2.77855 0,-0.0297 2.31484,-8.22101 2.85241,-10.03469 0.13819,-0.47416 -0.28603,-3.62437 -0.89542,-5.2819 -0.76544,-2.03071 -2.46553,-1.17003 -3.42792,-1.71257 -0.5925,-0.32111 -1.9653,-0.81765 -3.10572,-0.67351 -1.63016,0.42518 -3.31623,0.97678 -3.82656,0.99306 0,0 -4.85399,0.78791 -5.7443,1.18632 -4.38147,1.97721 -5.37086,2.51834 -5.56103,3.6408 -0.17827,0.93954 -0.14877,1.95187 -0.32371,2.71754 -0.20873,0.81906 -0.95204,1.70807 -0.95204,2.20614 0,0.49498 -0.1294,4.7824 -0.1294,4.96971 -0.30315,1.72746 -0.27722,2.93161 -0.68158,4.34545 -0.17959,0.64365 -1.17086,4.38992 -1.42774,5.75464 -0.1526,0.81622 -0.53579,3.98272 -0.53579,4.47627 0,0.49356 0.0155,2.71754 -0.47619,4.03172 -0.33027,0.86366 -1.58034,3.19325 -1.62993,3.36868 -0.30815,0.76554 -0.74295,5.28487 -0.74295,5.77842 0,0.49808 -0.90922,6.4891 -1.15754,8.44693 -0.23298,1.79881 0.28067,6.45645 0.28067,6.95 0,0.49498 -1.49613,6.71202 -1.46391,7.97126 0.8871,0.0297 2.69495,-0.1903 3.20195,-0.1903 z m -1.92606,53.42916 c -0.8425,0 -2.89891,-2.60907 -3.86973,-3.97081 -0.20182,-0.29578 -2.52369,-4.35723 -4.22354,-5.05891 -3.09241,-0.2557 -2.68152,-1.33653 -6.37107,-2.39501 -2.30996,-0.39389 -2.17128,-0.93062 -3.99424,-0.99745 -1.17466,-0.0452 -2.30474,1.35127 -4.35437,1.96078 -1.17764,0.34645 -4.96352,4.00496 -5.74763,4.09272 -0.23988,0 -0.4913,-0.20218 -0.666,-0.29732 -0.4844,-0.94109 -3.06137,-5.67294 -3.06137,-6.16506 0,-0.50249 0.83227,-1.35282 1.3099,-1.91774 1.40907,-0.46383 4.60209,-1.78103 4.67262,-1.96538 3.1075,-1.7096 5.37918,-4.98457 6.1653,-8.38155 0.56147,-2.47672 1.96199,-4.39587 2.11112,-6.72249 0.534,-7.53265 0.0595,-9.22739 0.18803,-9.81764 0.0761,-0.87413 -0.18803,-5.68032 -0.18803,-5.68032 0,-0.49355 -0.39366,-2.01882 -0.39366,-2.5169 0,-1.63528 1.13495,-3.23191 1.3112,-3.78042 0.10466,-0.37319 0.71584,-7.18489 0.71584,-7.18489 0,-0.49498 0.41078,-6.34037 0.41078,-6.34037 -0.36118,-3.71951 2.08555,-6.98564 2.3661,-8.29683 0.35275,-1.73483 -0.0654,-4.83591 -0.0654,-5.334 0,-0.49498 0.1382,-2.07829 0.1382,-2.57779 0,-0.49059 0.94858,-1.3885 1.14718,-2.00991 0.18161,-0.56634 0.27735,-1.36174 0.34407,-2.14371 l 0.34264,-3.60059 c 0,-2.12728 2.03536,-12.16054 2.03536,-12.65708 0,-0.49355 0.55861,-2.18378 0.60975,-3.17684 0.12642,-2.5778 0.20729,-3.56194 0.20729,-4.05847 0,-0.49511 -0.20729,-2.27013 -0.40436,-4.26517 0.18505,-2.10054 -0.55124,-4.3156 -0.56658,-4.8107 -0.0155,-0.59465 0.22109,-1.87611 -0.64341,-1.87611 -0.5089,0 -5.64178,2.17938 -6.03912,1.85982 -1.86625,-1.48817 -1.76349,-3.1784 -1.76349,-3.1784 0.99152,-1.27849 6.6346,-4.09569 7.45486,-4.59959 1.84044,-0.6408 2.75298,-0.92171 4.45332,-1.20417 1.13494,0.0738 6.1364,2.24325 7.87075,3.02973 2.99108,1.37209 4.77491,2.38597 7.74386,1.888 0.50153,-0.0892 9.09502,-3.37914 12.24535,-3.68836 1.48769,-0.14865 3.94655,0.8192 5.01846,1.12092 0.58871,0.14866 6.46835,0.46679 6.46835,0.46679 0.50842,0 5.08162,1.93856 5.96871,2.31021 0.56136,0.22299 4.22712,0.76115 4.91381,1.32761 2.623,2.07829 4.96686,5.02025 5.96314,7.42859 0.70382,2.48419 0.79813,12.07288 0.84428,12.27352 0.15746,0.59322 0.36285,5.19877 0.36285,5.6953 0,0.64067 -0.55267,3.55302 -0.90909,4.01827 -1.15886,3.11893 -3.23251,10.99504 -4.68084,13.98315 -0.6371,1.28896 -3.59393,6.03122 -4.49612,7.35431 -0.94847,0.87556 -4.40219,5.42319 -4.54419,5.6105 -0.45371,1.17586 -1.02885,2.66997 -1.97411,3.70763 -0.45871,0.52329 -4.31643,2.60456 -5.34041,2.99702 -0.52722,0.20515 -1.86077,-0.47571 -2.66379,0.61689 -0.0452,0.37166 -0.28602,2.46184 -0.53435,2.98073 -0.35785,0.69277 -4.08166,2.96575 -6.08288,3.8161 0,0 -4.63017,-0.83988 -5.21709,-0.66601 -0.64198,0.1992 -1.43679,0.74485 -2.18854,0.90684 l 0,0.67647 c 1.16979,0.35679 7.19334,2.13181 7.19334,2.13181 0.50806,0 7.51789,1.12092 7.51789,1.12092 1.04099,0.39984 2.20352,1.12685 3.49593,1.91916 0.33574,0.20075 3.45705,0.71215 4.66061,1.30085 0,0 6.58156,0.94692 7.26648,1.1937 0.96535,0.34643 2.06117,1.32761 3.10739,1.45688 2.01514,0.24381 4.195,0.10466 6.12773,0.71953 1.3288,0.4222 8.00622,4.62933 8.51785,4.75718 1.41764,0.49355 7.50113,3.10858 8.26644,3.35238 0.50854,0.14867 3.41054,1.77205 4.06287,1.93856 3.71036,0.94846 4.84388,0.83845 6.94774,0.60499 1.53598,0.60356 1.19525,1.89847 0.916,2.53023 -0.4844,0.50402 -2.14157,1.27552 -3.37261,1.44951 l -1.33581,0.17245 c -1.66228,-0.30327 -3.39318,-0.52032 -3.92729,-0.69134 -0.6867,-0.22441 -2.08044,-1.36615 -3.43326,-1.70367 -1.20012,0.0297 -1.7805,-0.23631 -2.88131,-0.19171 -0.73653,0.16496 -3.15354,1.4048 -3.82513,3.02676 -0.38319,2.50787 0.21229,4.94295 0.21229,5.82302 0,0.49511 -1.50826,1.70664 -1.96532,2.30724 -0.51888,1.41526 -2.48752,6.17405 -3.48784,7.76176 -0.78767,0.88305 -3.93241,-0.47572 -3.91397,-0.90386 0.34775,-1.87315 0.0975,-3.92171 0.66446,-4.77205 1.62137,-2.42777 1.9313,-5.47831 1.86636,-6.63336 -0.18506,-0.17102 -5.2442,-6.13379 -5.88296,-6.48321 -1.32369,-0.74331 -8.17725,-5.79484 -11.30533,-6.98414 -0.35275,-0.11893 -3.88829,-0.43409 -6.01474,-1.10306 -1.05836,-0.38796 -5.49978,-3.30625 -5.68626,-3.44445 -1.96888,-0.51294 -6.37939,-3.05054 -7.49554,-3.35083 -2.36622,-0.61546 -4.98945,-1.35735 -7.3571,-1.6844 -1.74469,-0.24084 -4.86778,-1.82855 -6.52007,-1.92666 -4.27504,-0.27354 -5.00099,-0.52329 -5.48729,-0.19921 -1.45035,0.96036 -1.76349,1.72008 -1.93998,3.23644 -0.61118,4.70508 0.063,8.49001 0.063,8.99106 l 0,6.7552 c 0,0.49059 -0.83702,6.69574 -0.97379,6.86664 -0.0487,1.75719 -0.26236,3.72547 -0.26236,4.222 0,0.99009 2.9554,6.66166 3.30636,7.14178 0.95715,0.51294 2.67092,2.777 3.52721,3.70168 0.54244,1.67988 0.39366,5.0055 0.39366,5.0055 -0.98961,1.16099 -2.93471,1.79881 -3.44647,1.79881 z m -44.14641,-36.04462 c -0.58002,-1.71854 -0.47406,-3.96928 -1.13864,-5.66106 -0.47583,-1.2666 -1.78048,-2.30128 -2.89153,-3.61699 -0.55124,-0.65852 -2.10256,-3.58122 -2.85597,-4.17586 -0.59595,-0.24833 -1.36603,-0.44599 -1.87136,-0.44599 -0.50843,0 -1.32368,0.30172 -1.85601,0.8325 -1.31322,1.26209 -2.9893,3.4385 -5.08995,4.27398 -0.73819,0.3003 -5.98751,3.89352 -7.68285,4.84935 -0.5818,0.33301 -1.12804,1.22497 -2.04404,1.50304 -2.6111,0.72249 -3.42624,2.16594 -5.23587,2.62239 -0.22062,0.0892 -3.01177,-0.0892 -3.5202,-0.0892 -0.50485,0 -2.50834,0.38199 -3.01498,0.38199 -0.50486,0 -1.34914,-0.34192 -2.31306,-0.26901 -0.50522,0.0297 -2.33221,0.96476 -3.84726,1.07178 l -2.58018,-0.40578 c -0.64007,-0.63033 -1.60946,-1.12091 -2.01169,-1.64872 -0.40935,-0.50687 -0.64067,-1.47615 -1.14909,-2.2373 -1.26197,-1.94747 -3.61427,-3.60214 -5.33138,-4.08226 -0.91599,-0.25273 -1.82877,-1.25922 -2.66247,-1.91476 -0.99116,-0.75675 -2.86953,-2.0456 -3.2255,-3.00892 -0.83262,-2.3221 -2.00015,-5.58077 -2.34754,-7.40931 -0.1219,-0.18887 -0.13831,-3.47726 -0.13831,-3.98569 0,-2.27595 -1.61982,-1.66644 -1.61982,-3.64221 0,-0.50843 0.20206,-0.70763 0.20527,-4.5788 0.41471,-0.82798 1.82033,-4.04954 1.82033,-5.23729 0,-0.50545 -1.01007,-6.78346 -1.01007,-7.29188 0,-0.50248 0.4329,-4.55346 1.06121,-6.70608 0.35465,-1.26517 0.60619,-2.94648 1.64895,-4.08678 0.85606,-0.96036 2.54914,-2.17046 3.66054,-2.80222 1.34902,-0.50699 4.22902,-0.47132 4.22902,-0.47132 0.50486,0 8.90306,2.99263 9.03662,5.66997 0.0368,0.84738 -0.86973,2.02775 -1.37661,3.56943 -0.24975,0.76413 -0.28579,2.38299 -0.8029,3.31064 -1.30299,1.7453 -5.75452,5.2404 -6.69953,6.02676 -0.76734,2.80967 -1.44856,3.3389 -1.44856,5.71309 0,1.01233 0.0368,2.25669 0.72226,3.4995 0.40436,0.70466 0.96249,4.19524 2.12836,5.22993 1.06489,0.938 2.72575,1.03612 3.79409,1.8716 0.75496,0.58429 1.57534,1.60257 2.1575,2.18532 0.27901,0.27651 2.96361,3.40888 3.47049,3.40888 0,0 8.52986,0 9.5316,0.18874 l 8.58101,1.36769 c 1.0976,0.1338 4.06632,-1.16253 5.88844,-1.14767 l 3.26651,-0.20218 c 0.95703,-0.0595 3.64353,-2.7368 4.82998,-3.70168 1.72079,-1.38993 5.25478,-5.58219 5.63476,-5.95385 l 0,-8.28642 c 0,-1.21606 -0.98283,-2.17498 -1.3577,-2.83796 -0.50866,-0.88008 -0.73606,-2.2046 -1.1422,-3.16793 -0.20552,-0.46086 -1.14185,-1.62494 -1.2,-1.79881 -2.14537,-1.16408 -4.67941,-1.97577 -6.53185,-3.0892 -0.9091,-0.55897 -4.06133,-4.06596 -4.1485,-4.56689 -0.16436,-1.03172 1.05621,-3.33752 0.98426,-3.54862 l -0.24642,-2.75917 c 0.28067,-1.9772 5.05759,-8.82302 6.54719,-8.96277 0.99164,0.0297 3.44515,0.29281 3.95322,0.29281 0.5102,0 2.32864,-0.60797 2.83385,-0.60797 2.23112,0 1.73958,2.97919 1.97078,3.71358 0.25332,0.80717 1.91739,4.16098 2.29737,5.0545 0.22988,0.55303 0.38556,1.42561 0.61307,2.23433 0.15069,0.58573 1.56678,4.02137 1.97769,5.7324 0.2551,2.32507 0.96546,5.59861 2.47063,7.61899 0.28413,2.65653 0.68814,7.63226 0.68814,8.13319 0,0.50402 -0.60619,5.06045 -0.60619,5.56887 0,2.62834 1.85946,9.89352 2.46909,10.98314 0.52924,0.93516 1.75481,1.60115 2.70875,2.62692 0.0808,0.22442 2.10766,2.62086 3.06981,3.12333 0.91243,0.48166 5.13965,3.23346 5.92209,3.97677 0.42316,1.86422 0.19529,4.34092 -0.24285,5.71896 -1.07869,0.65566 -2.71552,2.80971 -3.0716,3.666 -0.43147,1.03921 -2.56305,3.43267 -3.69466,3.70918 l -3.08908,0.38794 c -2.75655,0 -7.98683,-2.5332 -9.0761,-5.7205 z m 68.06147,46.99054 c 8.57958,0 12.66314,5.41879 21.70334,5.41879 9.03852,0 13.13053,-5.41879 21.70845,-5.41879 7.43571,0 11.4987,4.07037 18.33703,5.15263 l 0,-172.89527 -200.38154,0 0,16.69474 83.66266,0 0,10.58615 -83.66266,0 0,173.09602 200.38154,0 0,-16.86861 c -6.83833,-1.08678 -10.90132,-5.15119 -18.33703,-5.15119 -8.57792,0 -12.66993,5.41879 -21.70845,5.41879 -9.0402,0 -13.12376,-5.41879 -21.70334,-5.41879 -8.57921,0 -12.66825,5.41879 -21.70654,5.41879 l 0,-10.61447 c 9.03829,0 13.12733,-5.41879 21.70654,-5.41879 z" style="fill:#af1c2e;fill-opacity:1;fill-rule:nonzero;stroke:none" id="path13589" inkscape:connector-curvature="0"></path><path d="m 1010.079,851.09677 c 0,11.34505 -8.5592,20.58446 -20.92308,20.58446 -12.36289,0 -20.92271,-9.23941 -20.92271,-20.58446 l 0,-28.1912 11.54871,0 0,28.93889 c 0,4.95882 3.53154,8.96604 9.374,8.96604 5.84319,0 9.37478,-4.00722 9.37478,-8.96604 l 0,-28.93889 11.5483,0 0,28.1912 z" style="fill:#000000;fill-opacity:1;fill-rule:nonzero;stroke:none" id="path13549" inkscape:connector-curvature="0"></path><path d="m 1053.1491,870.45626 -20.3128,-28.93728 0,28.93728 -11.4114,0 0,-47.55069 11.4114,0 20.3128,29.1428 0,-29.1428 11.4114,0 0,47.55069 -11.4114,0 z" style="fill:#000000;fill-opacity:1;fill-rule:nonzero;stroke:none" id="path13551" inkscape:connector-curvature="0"></path><path d="m 1076.2463,822.90557 11.5502,0 0,47.55069 -11.5502,0 0,-47.55069 z" style="fill:#000000;fill-opacity:1;fill-rule:nonzero;stroke:none" id="path13553" inkscape:connector-curvature="0"></path><path d="m 1117.4144,859.18067 0.6814,0 11.1392,-36.2751 12.2283,0 -15.8955,47.55069 -15.626,0 -15.8949,-47.55069 12.2279,0 11.1396,36.2751 z" style="fill:#000000;fill-opacity:1;fill-rule:nonzero;stroke:none" id="path13555" inkscape:connector-curvature="0"></path><path d="m 1183.5136,822.90557 0,9.98413 -24.2516,0 0,8.55971 22.2822,0 0,9.98722 -22.2822,0 0,9.03402 25.0665,0 0,9.98561 -36.6151,0 0,-47.55069 35.8002,0 z" style="fill:#000000;fill-opacity:1;fill-rule:nonzero;stroke:none" id="path13557" inkscape:connector-curvature="0"></path><path d="m 1214.5602,853.13431 -9.0365,0 0,17.32195 -11.5483,0 0,-47.55069 22.4193,0 c 10.6642,0 16.8464,5.97691 16.8464,15.21633 0,5.91042 -2.9889,10.86924 -7.4724,13.11081 l 8.8301,19.22355 -12.2282,0 -7.8104,-17.32195 z m -9.0365,-20.24461 0,10.32696 10.871,0 c 3.2589,0 5.4331,-1.83523 5.4331,-5.16274 0,-3.32899 -2.1742,-5.16422 -5.4331,-5.16422 l -10.871,0 z" style="fill:#000000;fill-opacity:1;fill-rule:nonzero;stroke:none" id="path13559" inkscape:connector-curvature="0"></path><path d="m 1271.7601,833.97725 c 0,0 -5.7752,-1.76417 -11.956,-1.76417 -5.7074,0 -7.4049,1.56174 -7.4049,3.66885 0,1.6962 0.8825,2.85023 3.9393,3.73385 l 8.9667,2.51334 c 9.1021,2.58143 11.6838,7.47228 11.6838,14.40376 0,9.1005 -6.113,15.14835 -20.1062,15.14835 -5.0278,0 -12.0235,-1.15699 -16.3717,-2.78522 l 2.3093,-9.98722 c 4.0758,1.35943 9.3065,2.1736 13.858,2.1736 6.4529,0 8.7638,-1.49389 8.7638,-4.61748 0,-2.44697 -2.2415,-3.94235 -5.503,-4.82288 l -8.5595,-2.30942 c -7.4724,-2.04075 -10.5288,-6.86363 -10.5288,-13.52013 0,-6.86203 5.5705,-14.13039 18.2041,-14.13039 5.0958,0 11.0737,0.81565 16.0999,2.6494 l -3.3948,9.64576 z" style="fill:#000000;fill-opacity:1;fill-rule:nonzero;stroke:none" id="path13561" inkscape:connector-curvature="0"></path><path d="m 1286.2959,822.90557 11.5502,0 0,47.55069 -11.5502,0 0,-47.55069 z" style="fill:#000000;fill-opacity:1;fill-rule:nonzero;stroke:none" id="path13563" inkscape:connector-curvature="0"></path><path d="m 1309.5317,822.90557 19.359,0 c 14.2672,0 24.5238,9.50982 24.5238,23.57224 0,14.80849 -10.2566,23.97845 -24.5913,23.97845 l -19.2915,0 0,-47.55069 z m 19.2915,37.56508 c 7.8799,0 13.1105,-5.50111 13.1105,-13.99284 0,-7.94809 -5.2306,-13.58811 -13.1105,-13.58811 l -7.7448,0 0,27.58095 7.7448,0 z" style="fill:#000000;fill-opacity:1;fill-rule:nonzero;stroke:none" id="path13565" inkscape:connector-curvature="0"></path><path d="m 1367.954,870.45626 -12.0254,0 17.2561,-47.55069 15.4201,0 17.2543,47.55069 -12.0236,0 -3.6686,-10.59587 -18.5443,0 -3.6686,10.59587 z m 13.4503,-36.00173 -1.0191,0 -5.366,15.62267 11.7511,0 -5.366,-15.62267 z" style="fill:#000000;fill-opacity:1;fill-rule:nonzero;stroke:none" id="path13567" inkscape:connector-curvature="0"></path><path d="m 1411.7713,822.90557 19.359,0 c 14.2669,0 24.5239,9.50982 24.5239,23.57224 0,14.80849 -10.257,23.97845 -24.5913,23.97845 l -19.2916,0 0,-47.55069 z m 19.2916,37.56508 c 7.8797,0 13.1104,-5.50111 13.1104,-13.99284 0,-7.94809 -5.2307,-13.58811 -13.1104,-13.58811 l -7.7447,0 0,27.58095 7.7447,0 z" style="fill:#000000;fill-opacity:1;fill-rule:nonzero;stroke:none" id="path13569" inkscape:connector-curvature="0"></path><path d="m 1480.6975,823.28823 19.3607,0 c 14.2671,0 24.524,9.5113 24.524,23.57211 0,14.8101 -10.2569,23.98006 -24.5915,23.98006 l -19.2932,0 0,-47.55217 z m 19.2932,37.56804 c 7.8797,0 13.1107,-5.50408 13.1107,-13.99593 0,-7.94796 -5.231,-13.5865 -13.1107,-13.5865 l -7.7448,0 0,27.58243 7.7448,0 z" style="fill:#000000;fill-opacity:1;fill-rule:nonzero;stroke:none" id="path13571" inkscape:connector-curvature="0"></path><path d="m 1567.3126,823.28823 0,9.98561 -24.2519,0 0,8.5597 22.282,0 0,9.98723 -22.282,0 0,9.0355 25.0665,0 0,9.98413 -36.6151,0 0,-47.55217 35.8005,0 z" style="fill:#000000;fill-opacity:1;fill-rule:nonzero;stroke:none" id="path13573" inkscape:connector-curvature="0"></path><path d="m 1606.4414,860.85627 21.6704,0 0,9.98413 -33.219,0 0,-47.55217 11.5486,0 0,37.56804 z" style="fill:#000000;fill-opacity:1;fill-rule:nonzero;stroke:none" id="path13575" inkscape:connector-curvature="0"></path><path d="m 1644.0086,870.8404 -12.0254,0 17.2561,-47.55217 15.4201,0 17.2557,47.55217 -12.025,0 -3.6689,-10.59736 -18.546,0 -3.6666,10.59736 z m 13.4503,-36.00482 -1.0194,0 -5.3662,15.62415 11.7516,0 -5.366,-15.62415 z" style="fill:#000000;fill-opacity:1;fill-rule:nonzero;stroke:none" id="path13577" inkscape:connector-curvature="0"></path><path d="m 1725.5279,853.51844 -9.0346,0 0,17.32196 -11.5502,0 0,-47.55217 22.4175,0 c 10.6661,0 16.8484,5.97839 16.8484,15.21632 0,5.91191 -2.9889,10.87073 -7.4721,13.1123 l 8.8298,19.22355 -12.2265,0 -7.8123,-17.32196 z m -9.0346,-20.2446 0,10.32696 10.8673,0 c 3.2612,0 5.4351,-1.83362 5.4351,-5.16422 0,-3.32912 -2.1739,-5.16274 -5.4351,-5.16274 l -10.8673,0 z" style="fill:#000000;fill-opacity:1;fill-rule:nonzero;stroke:none" id="path13579" inkscape:connector-curvature="0"></path><path d="m 1754.1956,823.28823 11.5486,0 0,47.55217 -11.5486,0 0,-47.55217 z" style="fill:#000000;fill-opacity:1;fill-rule:nonzero;stroke:none" id="path13581" inkscape:connector-curvature="0"></path><path d="m 1799.7102,822.06622 c 13.7902,0 24.321,11.20762 24.321,24.99964 0,13.79041 -10.5308,24.99803 -24.321,24.99803 -13.7885,0 -24.3193,-11.20762 -24.3193,-24.99803 0,-13.79202 10.5308,-24.99964 24.3193,-24.99964 z m 0,39.46667 c 7.6095,0 12.7722,-6.52056 12.7722,-14.46703 0,-7.94957 -5.1627,-14.47173 -12.7722,-14.47173 -7.6078,0 -12.771,6.52216 -12.771,14.47173 0,7.94647 5.1632,14.46703 12.771,14.46703 z" style="fill:#000000;fill-opacity:1;fill-rule:nonzero;stroke:none" id="path13583" inkscape:connector-curvature="0"></path><path d="m 1833.9497,823.28823 11.5488,0 0,41.09798 c 0,9.37535 -5.4355,16.84912 -15.0124,22.08143 l -5.638,-9.31059 c 6.3177,-3.25794 9.1016,-8.08391 9.1016,-12.77084 l 0,-41.09798 z" style="fill:#000000;fill-opacity:1;fill-rule:nonzero;stroke:none" id="path13585" inkscape:connector-curvature="0"></path><path d="m 1863.4327,870.8404 -12.0236,0 17.2543,-47.55217 15.4197,0 17.2561,47.55217 -12.0254,0 -3.6686,-10.59736 -18.5439,0 -3.6686,10.59736 z m 13.4503,-36.00482 -1.0195,0 -5.366,15.62415 11.7515,0 -5.366,-15.62415 z" style="fill:#000000;fill-opacity:1;fill-rule:nonzero;stroke:none" id="path13587" inkscape:connector-curvature="0"></path></g></svg> 